<svg width="24" height="24" viewBox="0 0 24 24" fill="none" xmlns="http://www.w3.org/2000/svg">
<path fill-rule="evenodd" clip-rule="evenodd" d="M13.4142 10.5858C13.0391 10.2107 12.5304 10 12 10C11.4696 10 10.9609 10.2107 10.5858 10.5858C10.2107 10.9609 10 11.4696 10 12C10 12.5304 10.2107 13.0391 10.5858 13.4142C10.9609 13.7893 11.4696 14 12 14C12.5304 14 13.0391 13.7893 13.4142 13.4142C13.7893 13.0391 14 12.5304 14 12C14 11.4696 13.7893 10.9609 13.4142 10.5858ZM14.8284 9.17157C14.0783 8.42143 13.0609 8 12 8C10.9391 8 9.92172 8.42143 9.17157 9.17157C8.42143 9.92172 8 10.9391 8 12C8 13.0609 8.42143 14.0783 9.17157 14.8284C9.92172 15.5786 10.9391 16 12 16C13.0609 16 14.0783 15.5786 14.8284 14.8284C15.5786 14.0783 16 13.0609 16 12C16 10.9391 15.5786 9.92172 14.8284 9.17157Z" fill="#333333"/>
<path fill-rule="evenodd" clip-rule="evenodd" d="M3.00053 12.0008C3.00282 12.0205 3.01508 12.1228 3.08053 12.3167C3.1559 12.54 3.28229 12.8268 3.47204 13.1598C3.85207 13.8267 4.44118 14.5997 5.23264 15.3314C6.80873 16.7884 9.09189 18 12 18C14.9081 18 17.1913 16.7884 18.7674 15.3314C19.5588 14.5997 20.1479 13.8267 20.528 13.1598C20.7177 12.8268 20.8441 12.54 20.9195 12.3167C20.9849 12.1228 20.9972 12.0205 20.9995 12.0008C20.999 11.9994 20.9982 11.9958 20.9968 11.9901C20.981 11.9223 20.8942 11.5513 20.4923 10.8987C20.0762 10.223 19.4379 9.43656 18.604 8.69057C16.9276 7.19085 14.6327 6 12 6C9.36734 6 7.07237 7.19085 5.396 8.69057C4.56213 9.43656 3.9238 10.223 3.50768 10.8987C3.10584 11.5513 3.01905 11.9223 3.00318 11.9901C3.00184 11.9958 3.001 11.9994 3.00053 12.0008ZM12 4C5.5 4 1 9.86667 1 12C1 14.1333 5 20 12 20C19 20 23 14.1333 23 12C23 9.86667 18.5 4 12 4Z" fill="#333333"/>
<rect x="2.80762" y="4.25" width="2" height="24" rx="1" transform="rotate(-45 2.80762 4.25)" fill="#333333"/>
</svg>
