<svg width="24" height="24" viewBox="0 0 24 24" fill="none" xmlns="http://www.w3.org/2000/svg">
<path d="M3 3.99713C3 3.44671 3.44584 3 4 3H20C20.5542 3 21 3.44672 21 3.99713V4.02348V4.04997V4.0766V4.10337V4.13029V4.15733V4.18452V4.21184V4.2393V4.2669V4.29462V4.32249V4.35049V4.37862V4.40688V4.43527V4.4638V4.49246V4.52124V4.55016V4.5792V4.60837V4.63767V4.66709V4.69664V4.72632V4.75612V4.78604V4.81609V4.84626V4.87655V4.90697V4.9375V4.96816V4.99893V5.02982V5.06083V5.09196V5.12321V5.15457V5.18604V5.21764V5.24934V5.28116V5.31309V5.34514V5.37729V5.40956V5.44194V5.47443V5.50702V5.53973V5.57254V5.60546V5.63848V5.67162V5.70485V5.73819V5.77164V5.80519V5.83884V5.87259V5.90644V5.9404V5.97445V6.00861V6.04286V6.07721V6.11166V6.1462V6.18084V6.21558V6.25041V6.28534V6.32035V6.35547V6.39067V6.42597V6.46135V6.49683V6.53239V6.56805V6.60379V6.63962V6.67554V6.71155V6.74764V6.78381V6.82007V6.85641V6.89284V6.92935V6.96594V7.00261V7.03936V7.0762V7.11311V7.1501V7.18717V7.22431V7.26153V7.29883V7.33621V7.37365V7.41118V7.44877V7.48644V7.52418V7.56199V7.59987V7.63783V7.67585V7.71394V7.7521V7.79033V7.82862V7.86698V7.90541V7.9439V7.98245V8.02107V8.05976V8.0985V8.13731V8.17617V8.2151V8.25409V8.29314V8.33224V8.3714V8.41062V8.4499V8.48923V8.52862V8.56807V8.60756V8.64711V8.68672V8.72637V8.76608V8.80583V8.84564V8.8855V8.9254V8.96536V9.00536V9.0454V9.0855V9.12564V9.16582V9.20605V9.24632V9.28664V9.327V9.3674V9.40784V9.44832V9.48884V9.5294V9.57V9.61063V9.6513V9.69201V9.73276V9.77354V9.81435V9.8552V9.89609V9.937V9.97795V10.0189V10.0599V10.101V10.142V10.1831V10.2243V10.2654V10.3066V10.3478V10.389V10.4303V10.4716V10.5129V10.5542V10.5955V10.6369V10.6783V10.7197V10.7611V10.8026V10.8441V10.8855V10.9271V10.9686V11.0101V11.0517V11.0932V11.1348V11.1764V11.218V11.2596V11.3012V11.3429V11.3845V11.4262V11.4678V11.5095V11.5512V11.5929V11.6346V11.6763V11.718V11.7597V11.8014V11.8431V11.8848V11.9266V11.9683V12.01V12.0517V12.0934V12.1351V12.1769V12.2186V12.2603V12.302V12.3437V12.3854V12.4271V12.4687V12.5104V12.5521V12.5937V12.6354V12.677V12.7186V12.7602V12.8018V12.8434V12.885V12.9266V12.9681V13.0096V13.0512V13.0927V13.1341V13.1756V13.217V13.2585V13.2999V13.3413V13.3826V13.424V13.4653V13.5066V13.5478V13.5891V13.6303V13.6715V13.7127V13.7538V13.7949V13.836V13.8771V13.9181V13.9591V14.0001V14.041V14.0819V14.1228V14.1636V14.2044V14.2452V14.2859V14.3266V14.3673V14.4079V14.4485V14.4891V14.5296V14.57V14.6105V14.6509V14.6912V14.7315V14.7718V14.812V14.8521V14.8923V14.9323V14.9724V15.0124V15.0523V15.0922V15.132V15.1718V15.2116V15.2513V15.2909V15.3305V15.37V15.4095V15.4489V15.4883V15.5276V15.5669V15.6061V15.6452V15.6843V15.7233V15.7623V15.8012V15.84V15.8788V15.9176V15.9562V15.9948V16.0334V16.0718V16.1102V16.1486V16.1868V16.225V16.2632V16.3013V16.3393V16.3772V16.415V16.4528V16.4906V16.5282V16.5658V16.6033V16.6407V16.678V16.7153V16.7525V16.7896V16.8267V16.8636V16.9005V16.9373V16.9741V17.0107V17.0473V17.0838V17.1202V17.1565V17.1927V17.2289V17.2649V17.3009V17.3368V17.3726V17.4083V17.4439V17.4795V17.5149V17.5503V17.5855V17.6207V17.6558V17.6908V17.7257V17.7605V17.7952V17.8298V17.8643V17.8987V17.9331V17.9673V18.0014V18.0354V18.0693V18.1032V18.1369V18.1705V18.204V18.2374V18.2707V18.3039V18.337V18.37V18.4029V18.4357V18.4684V18.5009V18.5334V18.5657V18.5979V18.6301V18.6621V18.694V18.7258V18.7574V18.789V18.8204V18.8517V18.883V18.914V18.945V18.9759V19.0066V19.0372V19.0677V19.0981V19.1284V19.1585V19.1885V19.2184V19.2481V19.2778V19.3073V19.3367V19.3659V19.3951V19.4241V19.4529V19.4817V19.5103V19.5388V19.5671V19.5954V19.6234V19.6514V19.6792V19.7069V19.7345V19.7619V19.7891V19.8163V19.8433V19.8702V19.8969V19.9235V19.9499V19.9762V20.0024V20.0284V20.0543V20.08V20.1056V20.1311V20.1564V20.1815V20.2065V20.2314V20.2561V20.2807V20.3051V20.3293V20.3535V20.3774V20.4012V20.4249V20.4484V20.4717V20.4949V20.518V20.5409V20.5636V20.5862V20.6086V20.6308V20.6529V20.6749V20.6966V20.7183V20.7397V20.761V20.7821V20.8031V20.8239V20.8445V20.865V20.8853V20.9054V20.9254V20.9452V20.9648V20.9843V21.0036V21.0227V21.0416V21.0604V21.079V21.0975V21.1157V21.1338V21.1517V21.1694V21.187V21.2044V21.2216V21.2386V21.2554V21.2721V21.2886V21.2998C20.8915 21.232 20.7713 21.1513 20.6392 21.058C20.4007 20.8897 20.1497 20.6994 19.8804 20.4953L19.8452 20.4687C19.569 20.2593 19.274 20.0363 18.9851 19.8353C18.6988 19.6361 18.3912 19.4392 18.0854 19.2894C17.7958 19.1476 17.4136 19 17 19C16.3357 19 15.7918 19.2796 15.3742 19.5644C15.0689 19.7725 14.7518 20.0427 14.4735 20.2798C14.39 20.351 14.31 20.4191 14.2348 20.4818C13.5178 21.0793 12.878 21.5 12 21.5C11.122 21.5 10.4822 21.0793 9.76518 20.4818C9.69002 20.4191 9.61 20.351 9.52649 20.2798C9.24818 20.0427 8.93109 19.7725 8.62584 19.5644C8.2082 19.2796 7.66429 19 7 19C6.58639 19 6.20419 19.1476 5.91462 19.2894C5.60884 19.4392 5.30124 19.6361 5.01487 19.8353C4.72605 20.0363 4.43099 20.2593 4.15477 20.4687L4.11963 20.4953C3.85029 20.6994 3.5993 20.8897 3.36082 21.058C3.22866 21.1513 3.10853 21.232 3 21.2998L3 3.99713Z" stroke="#333333" stroke-width="2" stroke-linecap="round" stroke-linejoin="round"/>
<line x1="7" y1="7" x2="17" y2="7" stroke="#333333" stroke-width="2" stroke-linecap="round" stroke-linejoin="round"/>
<line x1="7" y1="11" x2="17" y2="11" stroke="#333333" stroke-width="2" stroke-linecap="round" stroke-linejoin="round"/>
<line x1="7" y1="15" x2="17" y2="15" stroke="#333333" stroke-width="2" stroke-linecap="round" stroke-linejoin="round"/>
</svg>
