<svg width="36" height="36" viewBox="0 0 36 36" fill="none" xmlns="http://www.w3.org/2000/svg">
<path d="M17.2154 30.0206C17.2154 30.5729 17.6632 31.0206 18.2154 31.0206C18.7677 31.0206 19.2154 30.5729 19.2154 30.0206H17.2154ZM18.2154 5L18.9226 4.29292L18.2155 3.58579L17.5084 4.29287L18.2154 5ZM7.29096 14.5096C6.90043 14.9001 6.90041 15.5333 7.29092 15.9238C7.68143 16.3144 8.31459 16.3144 8.70513 15.9239L7.29096 14.5096ZM27.7244 15.9238C28.1149 16.3144 28.7481 16.3144 29.1386 15.9239C29.5292 15.5334 29.5292 14.9002 29.1387 14.5097L27.7244 15.9238ZM19.2154 30.0206V5H17.2154V30.0206H19.2154ZM8.70513 15.9239L18.9225 5.70713L17.5084 4.29287L7.29096 14.5096L8.70513 15.9239ZM17.5083 5.70708L27.7244 15.9238L29.1387 14.5097L18.9226 4.29292L17.5083 5.70708Z" fill="#EC008C"/>
</svg>
