<svg width="22" height="30" viewBox="0 0 22 30" fill="none" xmlns="http://www.w3.org/2000/svg">
<circle cx="13" cy="9" r="7.25" stroke="#00B0F0" stroke-width="2" stroke-linecap="round" stroke-linejoin="round"/>
<path d="M11 11C11 11.5 11.8946 12 13 12C14.1054 12 15 11.3579 15 10.5701C15 9.78237 14.4416 9.19424 13 9C11.6838 8.83813 11 8.41187 11 7.42986C11 6.64209 11.8946 6 13 6C14.1054 6 15 6 15 7" stroke="#00B0F0" stroke-width="2" stroke-miterlimit="10" stroke-linecap="round" stroke-linejoin="round"/>
<line x1="13" y1="13" x2="13" y2="13.125" stroke="#00B0F0" stroke-width="2" stroke-linecap="round" stroke-linejoin="round"/>
<line x1="13" y1="5" x2="13" y2="4.85937" stroke="#00B0F0" stroke-width="2" stroke-linecap="round" stroke-linejoin="round"/>
<path d="M21 26V26.2648C21 26.7022 20.7157 27.0888 20.2983 27.2193L13.844 29.2363C13.293 29.4084 12.7041 29.418 12.1479 29.2638L6 27.56V28C6 28.5523 5.55228 29 5 29H1C0.447715 29 0 28.5523 0 28V19C0 18.4477 0.447715 18 1 18H7.067C7.66417 18 8.25651 18.107 8.81595 18.3159L14.13 20.3C15.25 20.72 16 21.8 16 23H18C19.66 23 21 24.34 21 26ZM4 27V20H2V27H4ZM18.9 25.57C18.74 25.24 18.39 25 18 25H12.65C12.11 25 11.58 24.92 11.07 24.75L9.63878 24.2749C9.11473 24.101 8.83112 23.5344 9.0049 23.0103C9.17876 22.486 9.7451 22.2011 10.2694 22.3751L11.7 22.85C12 22.95 14 23 14 23C14 22.63 13.77 22.3 13.43 22.17L7.61 20H6V25.5L12.97 27.41L18.9 25.57Z" fill="#00B0F0"/>
</svg>
