<svg width="24" height="24" viewBox="0 0 24 24" fill="none" xmlns="http://www.w3.org/2000/svg">
<path d="M4.77329 7.87597C4.83584 7.37554 5.26124 7 5.76556 7H18.2344C18.7388 7 19.1642 7.37554 19.2267 7.87597L20.7267 19.876C20.8013 20.4728 20.3359 21 19.7344 21H4.26556C3.66407 21 3.19868 20.4728 3.27329 19.876L4.77329 7.87597Z" stroke="#333333" stroke-width="2"/>
<path d="M17 7.48594C17 7.48959 16.9997 7.48777 17 7.48132C17 7.48322 17 7.48469 17 7.48594ZM16.9809 6.94435C16.255 6.99794 14.8322 7 12.0141 7C10.3024 7 9.08251 6.99998 8.20986 6.98837C7.6923 6.98149 7.31753 6.97051 7.04641 6.95553C7.22181 4.84624 9.26477 3 12.0141 3C14.7586 3 16.7992 4.83972 16.9809 6.94435ZM6.99904 7.65241C6.99842 7.66437 6.9976 7.67122 6.99734 7.67165C6.99708 7.67208 6.99738 7.6661 6.99904 7.65241Z" stroke="#333333" stroke-width="2"/>
</svg>
