<svg width="24" height="24" viewBox="0 0 24 24" fill="none" xmlns="http://www.w3.org/2000/svg">
<path d="M22 20V21C22.3321 21 22.6426 20.8351 22.8286 20.5599C23.0145 20.2847 23.0517 19.9351 22.9278 19.6269L22 20ZM2 20L1.0722 19.6269C0.948284 19.9351 0.985462 20.2847 1.17142 20.5599C1.35738 20.8351 1.66785 21 2 21V20ZM3.90476 15.2632L4.83256 15.6362L4.90476 15.4567V15.2632H3.90476ZM20.0952 15.2632H19.0952V15.4567L19.1674 15.6362L20.0952 15.2632ZM22 19H2V21H22V19ZM4.90476 10.0526C4.90476 6.16673 8.08064 3 12 3V1C6.98603 1 2.90476 5.05222 2.90476 10.0526H4.90476ZM12 3C15.9194 3 19.0952 6.16673 19.0952 10.0526H21.0952C21.0952 5.05222 17.014 1 12 1V3ZM2.9278 20.3731L4.83256 15.6362L2.97696 14.8901L1.0722 19.6269L2.9278 20.3731ZM4.90476 15.2632V10.0526H2.90476V15.2632H4.90476ZM19.0952 10.0526V15.2632H21.0952V10.0526H19.0952ZM19.1674 15.6362L21.0722 20.3731L22.9278 19.6269L21.023 14.8901L19.1674 15.6362Z" fill="black"/>
<path d="M14 21C14 22.1064 13.1064 23 12 23C10.8936 23 10 22.1064 10 21" stroke="black" stroke-width="2" stroke-miterlimit="10"/>
<circle cx="20" cy="5" r="4" fill="#EC008C"/>
</svg>
