<svg width="28" height="28" viewBox="0 0 28 28" fill="none" xmlns="http://www.w3.org/2000/svg">
<path d="M18.2207 20.9228L18.2206 20.9227L14.1762 16.8784L10.1165 20.9381L10.1163 20.9384C9.48977 21.5644 8.72695 22.0087 7.89548 22.2432L11.6992 26.0471C11.6992 26.0471 11.6992 26.0471 11.6992 26.0471C12.9699 27.3176 15.0301 27.3176 16.3007 26.0471L20.1959 22.1519C19.4598 21.9034 18.7849 21.4869 18.2207 20.9228ZM14.0197 16.722C14.0201 16.7223 14.0204 16.7227 14.0208 16.7231L14.0197 16.722ZM14.3311 16.7235C14.3312 16.7234 14.3314 16.7232 14.3316 16.7231L14.3311 16.7235Z" stroke="#EC008C" stroke-width="2"/>
<path d="M10.1163 7.06192L10.1164 7.0621L14.1759 11.1222L18.2204 7.07735L18.2206 7.07714C18.7849 6.51314 19.4598 6.09667 20.1958 5.84817L16.3007 1.95309C15.03 0.6824 12.9699 0.6824 11.6992 1.95309L7.89557 5.75676C8.72706 5.99131 9.48985 6.43572 10.1163 7.06192Z" stroke="#EC008C" stroke-width="2"/>
<path d="M26.047 11.6994L26.047 11.6994L23.1626 8.81497H21.8362C21.3436 8.81497 20.8564 9.0169 20.5087 9.3648L20.5085 9.36506L16.3088 13.5647C16.3088 13.5648 16.3088 13.5648 16.3087 13.5648C16.138 13.7356 15.9517 13.8815 15.7544 14.0027C15.9532 14.1222 16.1396 14.2665 16.3087 14.4356C16.3088 14.4358 16.309 14.436 16.3091 14.4361L20.5084 18.6349L20.5088 18.6353C20.8564 18.9833 21.3436 19.1852 21.8362 19.1852H23.1626L26.047 16.3009C26.047 16.3009 26.047 16.3009 26.047 16.3009C27.3177 15.03 27.3176 12.9699 26.047 11.6994ZM12.0439 14.435C12.2129 14.2661 12.3993 14.122 12.598 14.0027C12.4009 13.8816 12.2148 13.736 12.0443 13.5656L12.044 13.5652L7.82852 9.34978L7.82835 9.34961C7.48049 9.00157 6.99337 8.79969 6.50081 8.79969H4.85267L1.95301 11.6994L1.95298 11.6994C0.682379 12.9699 0.682289 15.03 1.95301 16.3009C1.95302 16.3009 1.95303 16.3009 1.95304 16.3009L4.85254 19.2004H6.50081C6.99337 19.2004 7.48049 18.9986 7.82835 18.6505L7.82852 18.6504L12.0436 14.4353L12.0439 14.435ZM4.68427 8.80003C4.68428 8.80004 4.68513 8.80001 4.68675 8.79988L4.68427 8.80003ZM4.68428 19.2001C4.68426 19.2001 4.68506 19.2002 4.68675 19.2003L4.68428 19.2001ZM23.3188 19.1847C23.3188 19.1847 23.318 19.1848 23.3167 19.1849L23.3188 19.1847Z" stroke="#EC008C" stroke-width="2"/>
</svg>
