<svg width="36" height="36" viewBox="0 0 36 36" fill="none" xmlns="http://www.w3.org/2000/svg">
<path d="M19.22 4.97939C19.22 4.4271 18.7723 3.97939 18.22 3.97939C17.6677 3.97939 17.22 4.4271 17.22 4.97939L19.22 4.97939ZM18.22 30L17.5129 30.7071L18.22 31.4142L18.9271 30.7071L18.22 30ZM29.1445 20.4904C29.535 20.0999 29.535 19.4667 29.1445 19.0762C28.754 18.6856 28.1208 18.6856 27.7303 19.0761L29.1445 20.4904ZM8.71104 19.0762C8.32052 18.6856 7.68736 18.6856 7.29682 19.0761C6.90629 19.4666 6.90627 20.0998 7.29678 20.4903L8.71104 19.0762ZM17.22 4.97939L17.22 30H19.22L19.22 4.97939L17.22 4.97939ZM27.7303 19.0761L17.5129 29.2929L18.9271 30.7071L29.1445 20.4904L27.7303 19.0761ZM18.9271 29.2929L8.71104 19.0762L7.29678 20.4903L17.5129 30.7071L18.9271 29.2929Z" fill="#EC008C"/>
</svg>
