<svg width="24" height="24" viewBox="0 0 24 24" fill="none" xmlns="http://www.w3.org/2000/svg">
<line x1="7.5" y1="7" x2="7.5" y2="17" stroke="#333333" stroke-width="2" stroke-linecap="round" stroke-linejoin="round"/>
<line x1="16.5" y1="7" x2="16.5" y2="17" stroke="#333333" stroke-width="2" stroke-linecap="round" stroke-linejoin="round"/>
<line x1="13.5" y1="7" x2="13.5" y2="14" stroke="#333333" stroke-width="2" stroke-linecap="round" stroke-linejoin="round"/>
<line x1="10.5" y1="7" x2="10.5" y2="14" stroke="#333333" stroke-width="2" stroke-linecap="round" stroke-linejoin="round"/>
<line x1="1" y1="-1" x2="7" y2="-1" transform="matrix(0 -1 -1 0 1 23)" stroke="#333333" stroke-width="2" stroke-linecap="round"/>
<line x1="1" y1="-1" x2="7" y2="-1" transform="matrix(-1 0 0 1 9 23)" stroke="#333333" stroke-width="2" stroke-linecap="round"/>
<line x1="2" y1="2" x2="2" y2="8" stroke="#333333" stroke-width="2" stroke-linecap="round"/>
<line x1="8" y1="2" x2="2" y2="2" stroke="#333333" stroke-width="2" stroke-linecap="round"/>
<line x1="1" y1="-1" x2="7" y2="-1" transform="matrix(0 1 1 0 23 1)" stroke="#333333" stroke-width="2" stroke-linecap="round"/>
<line x1="1" y1="-1" x2="7" y2="-1" transform="matrix(1 0 0 -1 15 1)" stroke="#333333" stroke-width="2" stroke-linecap="round"/>
<line x1="22" y1="22" x2="22" y2="16" stroke="#333333" stroke-width="2" stroke-linecap="round"/>
<line x1="16" y1="22" x2="22" y2="22" stroke="#333333" stroke-width="2" stroke-linecap="round"/>
</svg>
