<svg width="24" height="29" viewBox="0 0 24 29" fill="none" xmlns="http://www.w3.org/2000/svg">
<path d="M13.0017 1.00006C13.0017 0.447776 12.554 6.10948e-05 12.0017 6.10352e-05C11.4494 6.10352e-05 11.0017 0.447776 11.0017 1.00006L13.0017 1.00006ZM12.0017 27.0001L11.2946 27.7072L12.0017 28.4143L12.7088 27.7072L12.0017 27.0001ZM22.9228 17.4929C23.3133 17.1023 23.3133 16.4692 22.9228 16.0787C22.5322 15.6881 21.8991 15.6881 21.5086 16.0787L22.9228 17.4929ZM2.49421 16.0787C2.10368 15.6881 1.47051 15.6881 1.07999 16.0787C0.689476 16.4692 0.689484 17.1024 1.08001 17.4929L2.49421 16.0787ZM11.0017 1.00006L11.0017 27.0001L13.0017 27.0001L13.0017 1.00006L11.0017 1.00006ZM21.5086 16.0787L11.2946 26.293L12.7088 27.7072L22.9228 17.4929L21.5086 16.0787ZM12.7088 26.2929L2.49421 16.0787L1.08001 17.4929L11.2946 27.7072L12.7088 26.2929Z" fill="#333333"/>
</svg>
